<?xml version="1.0" encoding="UTF-8"?>
<svg xmlns="http://www.w3.org/2000/svg" width="690" height="750" viewBox="0 0 690 750">
	<g fill="none" stroke="#000" stroke-width="10" stroke-linejoin="round">
		<polyline points="350,347.6205 350,147.6205 50,200.5186 10,167.5717 10,127.5717 680,9.4326 680,369.4326 316.6778,433.4961" />
		<polyline points="10,167.5717 640,56.4857 640,336.4857 278.9,400.1573 350,462.9028" />
		<polyline points="350,147.6205 390,100.5674" />
		<polyline points="390,100.5674 430,133.5143 600,103.5387 640,56.4857" />
		<polyline points="430,133.5143 430,333.5143" />
		<polyline points="600,103.5387 600,303.5387 50,400.5186 50,440.5186 390,740.5674 430,733.5143 430,413.5143" />
		<polyline points="640,336.4857 600,303.5387" />
		<polyline points="50,400.5186 198.9,531.9223 198.9,454.2635 238.9,447.2104 238.9,567.2222 350,665.2676 350,587.6323" />
		<polyline points="390,540.5556 238.9,407.2104 125.5556,427.1961 198.9,491.9223" />
		<polyline points="238.9,447.2104 163.3333,460.5349" />
		<polyline points="350,505.2558 350,427.6205" />
		<polyline points="238.9,447.2104 238.9,407.2104" />
		<polyline points="238.9,567.2222 390,540.5556 390,420.5674" />
		<polyline points="276.6778,560.5609 350,625.2676" />
		<polyline points="314.4556,593.8997 390,580.5792 390,740.5674" />
		<polyline points="276.6778,560.5609 276.6778,480.5492" />
		<polyline points="350,505.2558 276.6778,518.1845" />
		<polyline points="238.9,447.2104 312.2222,511.917" />
		<polyline points="390,100.5674 390,340.5674" />
	</g>
</svg>
